<svg width="45" height="16" viewBox="0 0 45 16" fill="none" xmlns="http://www.w3.org/2000/svg">
<g clip-path="url(#clip0_19_2)">
<path d="M8.81 7.35007V13.0901C8.81 13.1301 8.8 13.2001 8.75 13.2201C8.75 13.2201 7.5 14.1101 5.44 14.1101C2.95 14.1101 0 13.3301 0 8.19007C0 3.05007 2.58 1.99007 5.1 2.00007C7.28 2.00007 8.16 2.49007 8.3 2.58007C8.34 2.63007 8.36 2.67007 8.36 2.72007L7.94 4.50007C7.94 4.59007 7.85 4.70007 7.74 4.67007C7.38 4.56007 6.84 4.34007 5.57 4.34007C4.1 4.34007 2.52 4.76007 2.52 8.07007C2.52 11.3801 4.02 11.7701 5.1 11.7701C6.02 11.7701 6.35 11.6601 6.35 11.6601V9.36007H4.88C4.77 9.36007 4.69 9.28007 4.69 9.19007V7.35007C4.69 7.26007 4.77 7.18007 4.88 7.18007H8.62C8.73 7.18007 8.81 7.26007 8.81 7.35007ZM44.66 9.68007C44.66 13.1101 43.55 14.0901 41.61 14.0901C39.97 14.0901 39.09 13.2601 39.09 13.2601C39.09 13.2601 39.05 13.7201 39 13.7801C38.97 13.8401 38.92 13.8601 38.86 13.8601H37.38C37.28 13.8601 37.19 13.7801 37.19 13.6901L37.21 2.58007C37.21 2.49007 37.29 2.41007 37.38 2.41007H39.51C39.6 2.41007 39.68 2.49007 39.68 2.58007V6.35007C39.68 6.35007 40.5 5.82007 41.7 5.82007L41.69 5.80007C42.89 5.80007 44.66 6.25007 44.66 9.68007ZM27.68 2.43007C27.77 2.43007 27.85 2.51007 27.85 2.60007V13.7101C27.85 13.8001 27.77 13.8801 27.68 13.8801H25.55C25.46 13.8801 25.38 13.8001 25.38 13.7101L25.4 8.96007H22.09V13.7101C22.09 13.8001 22.01 13.8801 21.92 13.8801H19.79C19.71 13.8801 19.62 13.8001 19.62 13.7101V2.60007C19.62 2.51007 19.7 2.43007 19.79 2.43007H21.92C22.01 2.43007 22.09 2.51007 22.09 2.60007V6.69007H25.4V2.60007C25.4 2.51007 25.48 2.43007 25.57 2.43007H27.68ZM35.94 6.07007C36.05 6.07007 36.13 6.15007 36.13 6.24007L36.11 13.7101C36.11 13.8001 36.05 13.8801 35.94 13.8801H34.6C34.53 13.8801 34.46 13.8401 34.44 13.7901C34.41 13.7301 34.36 13.3401 34.36 13.3401C34.36 13.3401 33.23 14.1101 31.84 14.1101C30.15 14.1101 28.92 13.5601 28.92 11.3601V6.25007C28.92 6.16007 29 6.08007 29.09 6.08007H31.23C31.32 6.08007 31.4 6.16007 31.4 6.25007V11.0001C31.4 11.7501 31.62 12.0901 32.37 12.0901C33.12 12.0901 33.67 11.7001 33.67 11.7001V6.26007C33.67 6.15007 33.73 6.07007 33.84 6.07007H35.94ZM18.534 12.0411H18.539C18.5798 12.0495 18.6163 12.0721 18.6421 12.1049C18.6679 12.1376 18.6813 12.1784 18.68 12.2201V13.7201C18.68 13.7901 18.65 13.8601 18.59 13.8801C18.49 13.9301 17.85 14.1001 17.32 14.1001C16.16 14.1001 14.46 13.8501 14.46 11.4101V8.13007H13.35C13.26 8.13007 13.18 8.05007 13.18 7.94007V6.58007C13.18 6.50007 13.23 6.43007 13.31 6.41007C13.38 6.40007 14.47 6.13007 14.47 6.13007V3.96007C14.47 3.88007 14.52 3.83007 14.61 3.83007H16.77C16.86 3.83007 16.91 3.88007 16.91 3.96007V6.07007H18.5C18.58 6.07007 18.66 6.15007 18.66 6.24007V7.94007C18.66 8.05007 18.59 8.13007 18.5 8.13007H16.91V11.2611C16.91 11.7311 17.18 12.0911 17.96 12.0911C18.207 12.0911 18.441 12.0421 18.534 12.0411ZM12.24 6.06007C12.33 6.06007 12.41 6.14007 12.41 6.23007V13.6001C12.41 13.7801 12.36 13.8701 12.16 13.8701H10.24C10.07 13.8701 9.94 13.8001 9.94 13.6001V6.26007C9.94 6.15007 10.02 6.06007 10.11 6.06007H12.24ZM42.23 9.84007C42.23 8.03007 41.5 7.79007 40.73 7.87007C40.13 7.91007 39.65 8.21007 39.65 8.21007V11.7301C39.65 11.7301 40.14 12.0701 40.87 12.0901C41.9 12.1201 42.23 11.7501 42.23 9.84007ZM11.19 2.68007C11.94 2.68007 12.55 3.29007 12.55 4.06007C12.55 4.83007 11.94 5.44007 11.19 5.44007C10.42 5.44007 9.81 4.83007 9.81 4.06007C9.81 3.29007 10.42 2.68007 11.19 2.68007ZM18.53 12.0301V12.0311L18.54 12.0411H18.539L18.534 12.0401V12.0411C18.525 12.0401 18.519 12.0301 18.51 12.0301H18.53Z" fill="#488BEC"/>
</g>
<defs>
<clipPath id="clip0_19_2">
<rect width="45" height="16" fill="white"/>
</clipPath>
</defs>
</svg>
