<svg width="102" height="49" viewBox="0 0 102 49" fill="none" xmlns="http://www.w3.org/2000/svg">
<rect y="14" width="41" height="24" rx="4" fill="url(#paint0_linear_542_148)"/>
<path d="M16.8822 43.2686L9.0467 32.6762C6.84955 29.706 8.96993 25.5 12.6645 25.5L28.3355 25.5C32.0301 25.5 34.1504 29.706 31.9533 32.6762L24.1178 43.2686C22.3189 45.7004 18.6811 45.7004 16.8822 43.2686Z" fill="white" stroke="#488BEC"/>
<g filter="url(#filter0_d_542_148)">
<path d="M23.8268 36.0164C22.2432 38.3886 18.7568 38.3886 17.1732 36.0164L8.63134 23.2209C6.85692 20.5628 8.76226 17 11.9582 17L29.0418 17C32.2377 17 34.1431 20.5628 32.3687 23.2209L23.8268 36.0164Z" fill="url(#paint1_linear_542_148)"/>
</g>
<g filter="url(#filter1_d_542_148)">
<path d="M23.7818 24.2901C22.1902 26.5744 18.8098 26.5744 17.2181 24.2901L9.72521 13.5368C7.87737 10.8849 9.77489 7.25 13.0071 7.25L27.9929 7.25C31.2251 7.25 33.1226 10.8849 31.2748 13.5368L23.7818 24.2901Z" fill="white"/>
</g>
<path d="M52.304 26.054L47.552 37.23C47.4493 37.5087 47.288 37.7287 47.068 37.89C46.8627 38.0367 46.6353 38.11 46.386 38.11C45.99 38.11 45.6967 38 45.506 37.78C45.3153 37.56 45.22 37.2887 45.22 36.966C45.22 36.834 45.242 36.6947 45.286 36.548L50.764 23.392C50.8813 23.0987 51.0573 22.8713 51.292 22.71C51.5413 22.5487 51.8053 22.4827 52.084 22.512C52.348 22.512 52.59 22.5927 52.81 22.754C53.0447 22.9007 53.2133 23.1133 53.316 23.392L58.728 36.284C58.8013 36.4747 58.838 36.6507 58.838 36.812C58.838 37.208 58.706 37.5233 58.442 37.758C58.1927 37.9927 57.914 38.11 57.606 38.11C57.342 38.11 57.1 38.0293 56.88 37.868C56.6747 37.7067 56.5133 37.4867 56.396 37.208L51.666 26.186L52.304 26.054ZM48.234 34.546L49.444 32.016H55.384L55.802 34.546H48.234ZM62.1088 22.6C62.4608 22.6 62.7688 22.732 63.0328 22.996C63.3114 23.2453 63.4508 23.5607 63.4508 23.942V36.658C63.4508 37.0393 63.3114 37.362 63.0328 37.626C62.7541 37.8753 62.4314 38 62.0648 38C61.6541 38 61.3241 37.8753 61.0748 37.626C60.8254 37.362 60.7008 37.0393 60.7008 36.658V23.942C60.7008 23.5607 60.8328 23.2453 61.0968 22.996C61.3608 22.732 61.6981 22.6 62.1088 22.6ZM71.8548 22.6C72.2654 22.6 72.5954 22.732 72.8448 22.996C73.0941 23.2453 73.2188 23.5607 73.2188 23.942V36.658C73.2188 37.0393 73.0868 37.362 72.8228 37.626C72.5734 37.8753 72.2361 38 71.8108 38C71.4588 38 71.1434 37.8753 70.8648 37.626C70.6008 37.362 70.4688 37.0393 70.4688 36.658V23.942C70.4688 23.5607 70.6081 23.2453 70.8868 22.996C71.1654 22.732 71.4881 22.6 71.8548 22.6ZM62.0428 29.002H71.8548V31.532H62.0428V29.002ZM86.3253 22.534C86.6626 22.534 86.9633 22.666 87.2273 22.93C87.5059 23.1793 87.6453 23.502 87.6453 23.898C87.6453 24.03 87.6233 24.1693 87.5793 24.316C87.5499 24.448 87.4913 24.58 87.4033 24.712L82.4093 31.862L82.8053 30.344V36.658C82.8053 37.0393 82.6733 37.362 82.4093 37.626C82.1599 37.8753 81.8666 38 81.5293 38C81.1626 38 80.8473 37.8753 80.5833 37.626C80.3339 37.362 80.2093 37.0393 80.2093 36.658V30.52L80.3853 31.224L75.6333 24.91C75.4866 24.7193 75.3839 24.536 75.3253 24.36C75.2666 24.184 75.2373 24.0227 75.2373 23.876C75.2373 23.48 75.3913 23.1573 75.6993 22.908C76.0073 22.6587 76.3226 22.534 76.6453 22.534C77.0559 22.534 77.4153 22.7393 77.7233 23.15L81.9473 28.98L81.3313 28.892L85.2253 23.194C85.5333 22.754 85.8999 22.534 86.3253 22.534ZM94.3274 26.054L89.5754 37.23C89.4728 37.5087 89.3114 37.7287 89.0914 37.89C88.8861 38.0367 88.6588 38.11 88.4094 38.11C88.0134 38.11 87.7201 38 87.5294 37.78C87.3388 37.56 87.2434 37.2887 87.2434 36.966C87.2434 36.834 87.2654 36.6947 87.3094 36.548L92.7874 23.392C92.9048 23.0987 93.0808 22.8713 93.3154 22.71C93.5648 22.5487 93.8288 22.4827 94.1074 22.512C94.3714 22.512 94.6134 22.5927 94.8334 22.754C95.0681 22.9007 95.2368 23.1133 95.3394 23.392L100.751 36.284C100.825 36.4747 100.861 36.6507 100.861 36.812C100.861 37.208 100.729 37.5233 100.465 37.758C100.216 37.9927 99.9374 38.11 99.6294 38.11C99.3654 38.11 99.1234 38.0293 98.9034 37.868C98.6981 37.7067 98.5368 37.4867 98.4194 37.208L93.6894 26.186L94.3274 26.054ZM90.2574 34.546L91.4674 32.016H97.4074L97.8254 34.546H90.2574Z" fill="url(#paint2_linear_542_148)"/>
<defs>
<filter id="filter0_d_542_148" x="3.95142" y="17" width="33.0972" height="28.7957" filterUnits="userSpaceOnUse" color-interpolation-filters="sRGB">
<feFlood flood-opacity="0" result="BackgroundImageFix"/>
<feColorMatrix in="SourceAlpha" type="matrix" values="0 0 0 0 0 0 0 0 0 0 0 0 0 0 0 0 0 0 127 0" result="hardAlpha"/>
<feOffset dy="4"/>
<feGaussianBlur stdDeviation="2"/>
<feComposite in2="hardAlpha" operator="out"/>
<feColorMatrix type="matrix" values="0 0 0 0 0.13526 0 0 0 0 0.360302 0 0 0 0 0.6625 0 0 0 0.5 0"/>
<feBlend mode="normal" in2="BackgroundImageFix" result="effect1_dropShadow_542_148"/>
<feBlend mode="normal" in="SourceGraphic" in2="effect1_dropShadow_542_148" result="shape"/>
</filter>
<filter id="filter1_d_542_148" x="5.00012" y="7.25" width="30.9998" height="26.7534" filterUnits="userSpaceOnUse" color-interpolation-filters="sRGB">
<feFlood flood-opacity="0" result="BackgroundImageFix"/>
<feColorMatrix in="SourceAlpha" type="matrix" values="0 0 0 0 0 0 0 0 0 0 0 0 0 0 0 0 0 0 127 0" result="hardAlpha"/>
<feOffset dy="4"/>
<feGaussianBlur stdDeviation="2"/>
<feComposite in2="hardAlpha" operator="out"/>
<feColorMatrix type="matrix" values="0 0 0 0 0.189583 0 0 0 0 0.612678 0 0 0 0 0.758333 0 0 0 0.4 0"/>
<feBlend mode="normal" in2="BackgroundImageFix" result="effect1_dropShadow_542_148"/>
<feBlend mode="normal" in="SourceGraphic" in2="effect1_dropShadow_542_148" result="shape"/>
</filter>
<linearGradient id="paint0_linear_542_148" x1="20.5" y1="14" x2="20.5" y2="38" gradientUnits="userSpaceOnUse">
<stop stop-color="#48C4EC"/>
<stop offset="1" stop-color="#4889EC"/>
</linearGradient>
<linearGradient id="paint1_linear_542_148" x1="20.5" y1="41" x2="20.5" y2="9" gradientUnits="userSpaceOnUse">
<stop stop-color="#498BEC"/>
<stop offset="1" stop-color="#47C1E8"/>
</linearGradient>
<linearGradient id="paint2_linear_542_148" x1="73.5" y1="16" x2="73.5" y2="44" gradientUnits="userSpaceOnUse">
<stop stop-color="#48C3EB"/>
<stop offset="1" stop-color="#488BEC"/>
</linearGradient>
</defs>
</svg>
