<svg width="190" height="170" viewBox="0 0 190 170" fill="none" xmlns="http://www.w3.org/2000/svg">
<path d="M190 85.0194C190 72.4618 174.238 60.561 150.071 53.181C155.648 28.6068 153.17 9.05563 142.248 2.79616C139.731 1.32788 136.788 0.632388 133.573 0.632388V9.24882C135.355 9.24882 136.788 9.59657 137.988 10.2534C143.255 13.2673 145.54 24.7429 143.759 39.5029C143.333 43.135 142.636 46.9602 141.784 50.8627C134.193 49.0081 125.905 47.5784 117.191 46.6511C111.963 39.5029 106.541 33.0116 101.08 27.3317C113.706 15.6242 125.556 9.21019 133.612 9.21019V0.59375C122.962 0.59375 109.02 8.16694 94.9225 21.3041C80.8255 8.24422 66.8834 0.748305 56.2332 0.748305V9.36474C64.2499 9.36474 76.1394 15.7401 88.7648 27.3704C83.3428 33.0503 77.9209 39.5029 72.7701 46.6511C64.0175 47.5784 55.7297 49.0081 48.139 50.9014C47.2483 47.0375 46.5899 43.2895 46.1252 39.6961C44.3049 24.9361 46.5512 13.4604 51.7795 10.408C52.9413 9.71249 54.4517 9.40338 56.2332 9.40338V0.786944C52.98 0.786944 50.0367 1.48244 47.4806 2.95071C36.598 9.21018 34.1582 28.7227 39.7738 53.2197C15.6849 60.6383 0 72.5004 0 85.0194C0 97.5769 15.7623 109.478 39.9287 116.858C34.3518 141.432 36.8304 160.983 47.7517 167.243C50.2691 168.711 53.2124 169.406 56.4656 169.406C67.1158 169.406 81.0579 161.833 95.1549 148.696C109.252 161.756 123.194 169.252 133.844 169.252C137.097 169.252 140.041 168.556 142.597 167.088C153.479 160.829 155.919 141.316 150.304 116.819C174.315 109.439 190 97.5383 190 85.0194ZM139.576 59.2473C138.143 64.2317 136.362 69.3707 134.348 74.5096C132.76 71.4185 131.095 68.3274 129.274 65.2363C127.493 62.1452 125.595 59.1314 123.698 56.1949C129.197 57.0063 134.503 58.0109 139.576 59.2473ZM121.839 100.398C118.818 105.614 115.72 110.56 112.505 115.158C106.735 115.66 100.887 115.93 95 115.93C89.1521 115.93 83.3041 115.66 77.5724 115.196C74.3579 110.598 71.221 105.691 68.2002 100.513C65.2568 95.4518 62.5846 90.3129 60.1447 85.1353C62.5459 79.9577 65.2568 74.7801 68.1614 69.7184C71.1822 64.5022 74.2805 59.5564 77.4949 54.9584C83.2654 54.4561 89.1133 54.1857 95 54.1857C100.848 54.1857 106.696 54.4561 112.428 54.9198C115.642 59.5178 118.779 64.4249 121.8 69.6025C124.743 74.6642 127.415 79.8031 129.855 84.9807C127.415 90.1583 124.743 95.3359 121.839 100.398ZM134.348 95.3745C136.439 100.552 138.221 105.73 139.692 110.753C134.619 111.989 129.274 113.032 123.736 113.844C125.634 110.869 127.532 107.816 129.313 104.686C131.095 101.595 132.76 98.4656 134.348 95.3745ZM95.0775 136.602C91.4758 132.893 87.874 128.758 84.3111 124.238C87.7966 124.392 91.3596 124.508 94.9613 124.508C98.6017 124.508 102.203 124.431 105.728 124.238C102.242 128.758 98.6405 132.893 95.0775 136.602ZM66.2638 113.844C60.7644 113.032 55.4586 112.028 50.3852 110.791C51.8182 105.807 53.5997 100.668 55.6135 95.5291C57.2014 98.6202 58.8667 101.711 60.6869 104.802C62.5071 107.893 64.3661 110.907 66.2638 113.844ZM94.8838 33.4367C98.4855 37.146 102.087 41.2803 105.65 45.8011C102.165 45.6465 98.6017 45.5306 95 45.5306C91.3596 45.5306 87.7579 45.6079 84.2336 45.8011C87.7191 41.2803 91.3208 37.146 94.8838 33.4367ZM66.225 56.1949C64.3274 59.17 62.4297 62.2225 60.6482 65.3522C58.8667 68.4433 57.2014 71.5344 55.6135 74.6255C53.5222 69.448 51.7407 64.2704 50.2691 59.2473C55.3424 58.0495 60.6869 57.0063 66.225 56.1949ZM31.1761 104.571C17.4664 98.7361 8.59764 91.0856 8.59764 85.0194C8.59764 78.9531 17.4664 71.264 31.1761 65.4682C34.5067 64.0385 38.1472 62.7635 41.9038 61.5657C44.1113 69.1388 47.0159 77.0211 50.6176 85.0966C47.0546 93.1335 44.1888 100.977 42.02 108.512C38.1859 107.314 34.5455 106 31.1761 104.571ZM52.0118 159.785C46.7448 156.771 44.4599 145.296 46.2413 130.536C46.6674 126.904 47.3645 123.078 48.2165 119.176C55.8072 121.031 64.095 122.46 72.8088 123.388C78.0371 130.536 83.459 137.027 88.9197 142.707C76.2943 154.414 64.4435 160.829 56.3881 160.829C54.6453 160.79 53.1737 160.442 52.0118 159.785ZM143.875 130.343C145.695 145.103 143.449 156.578 138.221 159.631C137.059 160.326 135.548 160.635 133.767 160.635C125.75 160.635 113.861 154.26 101.235 142.63C106.657 136.95 112.079 130.497 117.23 123.349C125.982 122.422 134.27 120.992 141.861 119.099C142.752 123.001 143.449 126.749 143.875 130.343ZM158.785 104.571C155.455 106 151.814 107.275 148.057 108.473C145.85 100.9 142.945 93.0176 139.344 84.9421C142.907 76.9052 145.773 69.0616 147.941 61.527C151.775 62.7248 155.416 64.0385 158.824 65.4682C172.534 71.3026 181.402 78.9531 181.402 85.0194C181.364 91.0856 172.495 98.7747 158.785 104.571Z" fill="#488bec"/>
</svg>
 