<svg width="190" height="160" viewBox="0 0 190 160" fill="none" xmlns="http://www.w3.org/2000/svg">
	<g clip-path="url(#clip0_2_3)">
		<path d="M163.502 91.963C156.877 92.002 151.119 93.7945 146.298 96.4443C144.529 92.5086 142.76 89.0015 142.448 86.4296C142.101 83.4292 141.685 81.5977 142.101 78.0127C142.518 74.4277 144.391 69.323 144.356 68.9333C144.321 68.5436 143.94 66.7122 140.124 66.6732C136.309 66.6342 133.014 67.4915 132.633 68.6216C132.251 69.7516 131.523 72.3235 131.037 74.9732C130.378 78.87 123.407 92.7813 119.418 100.068C118.135 97.2236 117.025 94.7297 116.782 92.7424C116.435 89.7419 116.019 87.9104 116.435 84.3254C116.851 80.7404 118.724 75.6357 118.69 75.246C118.655 74.8563 118.273 73.0249 114.458 72.9859C110.643 72.9469 107.348 73.8042 106.966 74.9343C106.585 76.0643 106.169 78.7141 105.371 81.286C104.573 83.8578 95.3125 107.082 92.8846 113.083C91.6359 116.162 90.5607 118.617 89.7977 120.292C89.7977 120.292 89.763 120.409 89.6589 120.604C88.9999 122.046 88.6184 122.825 88.6184 122.825C88.6184 122.825 88.6184 122.825 88.6184 122.864C88.0982 123.916 87.5432 124.89 87.2657 124.89C87.0576 124.89 86.6761 122.085 87.3351 118.266C88.7225 110.2 92.0175 97.6522 91.9828 97.2236C91.9828 96.9898 92.6071 94.8076 89.8324 93.6776C87.127 92.5475 86.1558 94.418 85.913 94.418C85.6703 94.418 85.4968 95.0804 85.4968 95.0804C85.4968 95.0804 88.5144 80.9742 79.7393 80.9742C74.2592 80.9742 66.698 87.7156 62.9521 93.7945C60.5936 95.2363 55.5644 98.3147 50.1883 101.627C48.142 102.913 46.0262 104.199 44.0492 105.407C43.9105 105.251 43.7718 105.056 43.633 104.9C33.0197 92.1578 13.3884 83.1564 14.2208 66.0497C14.533 59.8149 16.4406 43.4486 51.9225 23.5753C81.1266 7.40382 104.365 11.8851 108.388 21.8217C114.146 36.0059 95.9368 62.3478 65.7615 66.1666C54.2464 67.6084 48.2113 62.6206 46.6852 60.7501C45.0898 58.8018 44.847 58.6849 44.2573 59.0746C43.2862 59.6591 43.9105 61.4126 44.2573 62.4257C45.1591 65.0755 48.8703 69.7516 55.1482 72.0507C60.6976 74.077 74.1898 75.207 90.526 68.115C108.805 60.1656 123.095 38.0711 118.898 19.5616C114.701 0.779371 86.9536 -5.41644 60.6976 5.06578C45.0898 11.3006 28.1639 21.1203 15.9897 33.9016C1.52641 49.0989 -0.762747 62.3088 0.173726 67.8422C3.53809 87.4818 27.6436 100.263 37.2858 109.732C36.8002 110.044 36.3493 110.317 35.9678 110.55C31.1467 113.239 12.7641 124.033 8.18577 135.451C2.98315 148.388 9.01819 157.662 13.0069 158.909C25.3891 162.767 38.1182 155.831 44.951 144.374C51.7838 132.918 50.9514 118.032 47.7951 111.213C47.7604 111.135 47.7258 111.057 47.6564 110.979C48.905 110.161 50.1883 109.303 51.437 108.485C53.8995 106.849 56.3274 105.329 58.4085 104.082C57.2292 107.706 56.3621 112.031 55.9459 118.266C55.4256 125.592 58.0963 135.1 61.5994 138.841C63.1602 140.477 64.9985 140.516 66.1777 140.516C70.2705 140.516 72.1087 136.698 74.1551 132.177C76.6524 126.644 78.9068 120.214 78.9068 120.214C78.9068 120.214 76.0974 137.594 83.7279 137.594C86.5027 137.594 89.3121 133.541 90.5607 131.476C90.5607 131.515 90.5607 131.515 90.5607 131.515C90.5607 131.515 90.6301 131.398 90.7688 131.125C91.0463 130.619 91.2197 130.307 91.2197 130.307C91.2197 130.307 91.2197 130.268 91.2197 130.229C92.3296 128.047 94.8269 123.098 98.5381 114.876C103.325 104.277 107.938 91.0278 107.938 91.0278C107.938 91.0278 108.354 94.2621 109.776 99.6396C110.608 102.796 112.342 106.264 113.73 109.615C112.62 111.369 111.926 112.343 111.926 112.343C111.926 112.343 111.926 112.343 111.961 112.382C111.059 113.707 110.088 115.149 109.013 116.551C105.232 121.617 100.723 127.423 100.099 129.099C99.3705 131.086 99.5439 132.528 100.931 133.697C101.937 134.554 103.741 134.671 105.579 134.554C108.978 134.282 111.371 133.346 112.551 132.762C114.389 132.021 116.539 130.891 118.551 129.216C122.262 126.137 124.517 121.734 124.308 115.928C124.204 112.733 123.268 109.537 122.123 106.537C122.47 105.991 122.782 105.446 123.129 104.9C128.991 95.2752 133.534 84.7151 133.534 84.7151C133.534 84.7151 133.951 87.9494 135.373 93.3269C136.066 96.0546 137.488 99.0161 138.737 101.9C133.222 106.926 129.823 112.772 128.609 116.59C126.424 123.682 128.124 126.878 131.349 127.618C132.806 127.969 134.887 127.19 136.413 126.449C138.356 125.748 140.645 124.54 142.83 122.747C146.541 119.669 150.113 115.382 149.905 109.576C149.801 106.926 149.177 104.316 148.31 101.783C152.992 99.6006 159.027 98.3926 166.727 99.4058C183.237 101.588 186.497 113.161 185.873 118.032C185.249 122.903 181.78 125.553 180.636 126.371C179.491 127.189 179.109 127.462 179.214 128.047C179.352 128.904 179.907 128.865 180.878 128.709C182.231 128.436 189.549 124.774 189.862 115.811C190.382 104.355 180.67 91.8461 163.502 91.963ZM36.1412 140.205C30.6611 146.907 23.0306 149.44 19.7356 147.297C16.1978 144.998 17.5852 135.1 24.3139 128.008C28.4067 123.682 33.6787 119.669 37.1818 117.214C37.9795 116.668 39.1588 115.889 40.5808 114.915C40.8236 114.759 40.9623 114.681 40.9623 114.681C41.2398 114.486 41.5173 114.291 41.7948 114.096C44.2573 124.228 41.8988 133.152 36.1412 140.205ZM76.0281 109.732C74.1204 114.954 70.1317 128.32 67.7038 127.579C65.6228 126.956 64.3395 116.824 67.2876 106.81C68.7791 101.783 71.9353 95.7818 73.7736 93.4438C76.7564 89.7029 80.0514 88.4559 80.8492 89.9757C81.855 91.963 77.2073 106.459 76.0281 109.732ZM108.943 127.423C108.146 127.891 107.383 128.203 107.036 127.969C106.793 127.813 107.383 127.189 107.383 127.189C107.383 127.189 111.51 122.202 113.14 119.942C114.077 118.617 115.187 117.058 116.366 115.304C116.366 115.46 116.366 115.655 116.366 115.811C116.366 121.773 111.233 125.787 108.943 127.423ZM134.332 120.916C133.743 120.448 133.847 118.889 135.824 114.019C136.587 112.109 138.39 108.914 141.477 105.835C141.824 107.082 142.067 108.29 142.032 109.42C141.997 116.941 137.211 119.747 134.332 120.916Z" fill="#488bec" />
	</g>
	<defs>
		<clipPath id="clip0_2_3">
			<rect width="190" height="160" fill="white" />
		</clipPath>
	</defs>
</svg>
