<svg width="28" height="25" viewBox="0 0 28 25" fill="none" xmlns="http://www.w3.org/2000/svg">
<g opacity="0.3">
<path d="M27.6108 12.2292C27.6108 10.4102 25.3202 8.68638 21.8084 7.61737C22.6188 4.05775 22.2586 1.22572 20.6715 0.319023C20.3057 0.106341 19.878 0.00559681 19.4108 0.00559681V1.2537C19.6697 1.2537 19.878 1.30408 20.0524 1.39922C20.8178 1.83578 21.1499 3.49806 20.891 5.63607C20.8291 6.16218 20.7278 6.71627 20.604 7.28156C19.5009 7.01291 18.2965 6.80582 17.0302 6.67149C16.2704 5.63607 15.4825 4.69579 14.689 3.87305C16.5237 2.17719 18.2459 1.24811 19.4165 1.24811V0C17.8688 0 15.8427 1.09699 13.7941 2.99993C11.7456 1.10818 9.71949 0.0223877 8.1718 0.0223877V1.27049C9.33679 1.27049 11.0646 2.19398 12.8993 3.87865C12.1114 4.70139 11.3235 5.63607 10.5749 6.67149C9.30302 6.80582 8.09864 7.0129 6.99556 7.28715C6.86611 6.72746 6.77044 6.18457 6.7029 5.66405C6.43839 3.52604 6.76481 1.86376 7.52458 1.42161C7.69342 1.32087 7.91291 1.27609 8.1718 1.27609V0.0279845C7.69905 0.0279845 7.27133 0.128728 6.89988 0.34141C5.31842 1.24811 4.96386 4.07454 5.77992 7.62297C2.27932 8.69757 0 10.4158 0 12.2292C0 14.0482 2.29058 15.772 5.80243 16.841C4.992 20.4007 5.35219 23.2327 6.93928 24.1394C7.30509 24.3521 7.73282 24.4528 8.20557 24.4528C9.75326 24.4528 11.7793 23.3558 13.8279 21.4529C15.8765 23.3446 17.9025 24.4304 19.4502 24.4304C19.923 24.4304 20.3507 24.3297 20.7222 24.117C22.3036 23.2103 22.6582 20.3839 21.8421 16.8354C25.3315 15.7664 27.6108 14.0426 27.6108 12.2292ZM20.2832 8.49608C20.0749 9.21808 19.8161 9.96247 19.5234 10.7069C19.2927 10.2591 19.0506 9.81135 18.7861 9.3636C18.5273 8.91585 18.2515 8.47929 17.9757 8.05393C18.7749 8.17146 19.5459 8.31698 20.2832 8.49608ZM17.7056 14.4568C17.2666 15.2123 16.8163 15.9288 16.3492 16.5948C15.5107 16.6675 14.6608 16.7067 13.8054 16.7067C12.9556 16.7067 12.1057 16.6675 11.2728 16.6004C10.8057 15.9344 10.3498 15.2235 9.91084 14.4736C9.48312 13.7404 9.09479 12.996 8.74022 12.246C9.08916 11.496 9.48312 10.746 9.90521 10.0128C10.3442 9.25726 10.7944 8.54086 11.2616 7.87483C12.1001 7.80207 12.9499 7.76289 13.8054 7.76289C14.6552 7.76289 15.505 7.80207 16.338 7.86923C16.8051 8.53526 17.261 9.24607 17.6999 9.99605C18.1277 10.7292 18.516 11.4736 18.8706 12.2236C18.516 12.9736 18.1277 13.7236 17.7056 14.4568ZM19.5234 13.7292C19.8273 14.4792 20.0862 15.2291 20.3001 15.9567C19.5628 16.1358 18.7861 16.287 17.9813 16.4045C18.2571 15.9735 18.5329 15.5314 18.7918 15.078C19.0507 14.6303 19.2927 14.1769 19.5234 13.7292ZM13.8166 19.7011C13.2932 19.1638 12.7698 18.5649 12.2521 17.9101C12.7586 17.9324 13.2764 17.9492 13.7998 17.9492C14.3288 17.9492 14.8522 17.938 15.3643 17.9101C14.8578 18.5649 14.3344 19.1638 13.8166 19.7011ZM9.62944 16.4045C8.83027 16.287 8.05924 16.1414 7.32198 15.9623C7.53021 15.2403 7.7891 14.4959 8.08175 13.7516C8.3125 14.1993 8.5545 14.6471 8.81902 15.0948C9.08353 15.5426 9.35367 15.9791 9.62944 16.4045ZM13.7885 4.75736C14.3119 5.29466 14.8353 5.89353 15.3531 6.54836C14.8466 6.52598 14.3288 6.50918 13.8054 6.50918C13.2764 6.50918 12.753 6.52038 12.2408 6.54836C12.7473 5.89353 13.2707 5.29466 13.7885 4.75736ZM9.62382 8.05393C9.34805 8.48489 9.07227 8.92704 8.81339 9.38039C8.5545 9.82814 8.3125 10.2759 8.08175 10.7236C7.77784 9.97366 7.51896 9.22368 7.30509 8.49608C8.04236 8.32258 8.81902 8.17146 9.62382 8.05393ZM4.53051 15.0612C2.53821 14.2161 1.24941 13.1079 1.24941 12.2292C1.24941 11.3505 2.53821 10.2367 4.53051 9.39718C5.01451 9.19009 5.54354 9.0054 6.08945 8.83189C6.41025 9.92889 6.83235 11.0707 7.35575 12.2404C6.83797 13.4046 6.42151 14.5407 6.10634 15.6321C5.54917 15.4586 5.02014 15.2683 4.53051 15.0612ZM7.55835 23.0592C6.79295 22.6226 6.4609 20.9604 6.71979 18.8223C6.78169 18.2962 6.883 17.7421 7.00681 17.1769C8.10989 17.4455 9.31428 17.6526 10.5806 17.7869C11.3403 18.8223 12.1283 19.7626 12.9218 20.5854C11.0871 22.2812 9.36493 23.2103 8.19431 23.2103C7.94105 23.2047 7.72719 23.1543 7.55835 23.0592ZM20.9079 18.7944C21.1724 20.9324 20.846 22.5947 20.0862 23.0368C19.9174 23.1376 19.6979 23.1823 19.439 23.1823C18.274 23.1823 16.5462 22.2588 14.7115 20.5742C15.4994 19.7514 16.2873 18.8167 17.0358 17.7813C18.3078 17.647 19.5121 17.4399 20.6152 17.1657C20.7447 17.731 20.846 18.2738 20.9079 18.7944ZM23.0746 15.0612C22.5906 15.2683 22.0616 15.453 21.5157 15.6265C21.1949 14.5295 20.7728 13.3878 20.2494 12.218C20.7672 11.0539 21.1836 9.91769 21.4988 8.8263C22.056 8.9998 22.585 9.19009 23.0803 9.39718C25.0726 10.2423 26.3614 11.3505 26.3614 12.2292C26.3557 13.1079 25.0669 14.2217 23.0746 15.0612Z" fill="#9875F5"/>
<path d="M13.8005 14.7872C15.221 14.7872 16.3725 13.642 16.3725 12.2294C16.3725 10.8168 15.221 9.67163 13.8005 9.67163C12.38 9.67163 11.2285 10.8168 11.2285 12.2294C11.2285 13.642 12.38 14.7872 13.8005 14.7872Z" fill="#9875F5"/>
</g>
</svg>
